PathFileType	4	(X/Y/Z)	traj.trc
DataRate	CameraRate	NumFrames	NumMarkers	Units	OrigDataRate	OrigDataStartFrame	OrigNumFrames
30.00	30.00	153	1	mm	30.00	1	200
Frame#	Time	wrist		
		X1	Y1	Z1

0	0.0	442.40206480026245	462.90960907936096	-121.14856392145157
1	0.020100502512562814	442.40206480026245	462.90960907936096	-121.14856392145157
2	0.04020100502512563	442.40192348968543	462.9104279610626	-121.14888720131806
3	0.06030150753768844	442.4012226319006	462.9144893669924	-121.15049057182212
4	0.08040201005025126	442.39941685257014	462.92495369091097	-121.15462169995995
5	0.10050251256281408	442.3959776463871	462.9448835721056	-121.16248966100818
6	0.12060301507537688	442.3903932040605	462.9772448980007	-121.17526533433633
7	0.1407035175879397	442.38216823929884	463.02490780676754	-121.19408179921935
8	0.16080402010050251	442.3708238157949	463.090647689934	-121.22003473065014
9	0.18090452261306533	442.3558971742098	463.17714619499486	-121.25418279515198
10	0.20100502512562815	442.33694155915754	463.28699222802186	-121.29754804659113
11	0.22110552763819097	442.3135260461889	463.42268295627326	-121.35111632198928
12	0.24120603015075376	442.28523536877606	463.5866248108043	-121.41583763733612
13	0.2613065326633166	442.2516697452968	463.7811344890768	-121.49262658340179
14	0.2814070351758794	442.21244470601874	464.0084399575694	-121.58236272154937
15	0.30150753768844224	442.1671909200837	464.27068145438733	-121.68589097954751
16	0.32160804020100503	442.115554022492	464.56991249187257	-121.80402204738277
17	0.3417085427135678	442.05719444108684	464.90810085921373	-121.93753277307228
18	0.36180904522613067	441.9917872235382	465.2871296250561	-122.08716655847613
19	0.38190954773869346	441.9190218643277	465.7087981401115	-122.25363375510997
20	0.4020100502512563	441.8386021317325	466.1748230397685	-122.4376120599575
21	0.4221105527638191	441.7502458948097	466.68683924670205	-122.6397469112829
22	0.44221105527638194	441.6536849503807	467.24640097348384	-122.86065188444344
23	0.4623115577889447	441.5486648500154	467.85498272519203	-123.10090908770191
24	0.4824120603015075	441.4349447270166	468.51398030202125	-123.36106955803923
25	0.5025125628140703	441.3122971234042	469.2247118018927	-123.64165365696685
26	0.5226130653266332	441.1805078168994	469.98841862306404	-123.94315146633929
27	0.542713567839196	441.0393756479094	470.8062664667394	-124.2660231841667
28	0.5628140703517588	440.8887123465112	471.67934633967934	-124.6106995204273
29	0.5829145728643216	440.7283423594362	472.6086755568109	-124.97758209287994
30	0.6030150753768845	440.5581026770543	473.59519874383744	-125.36704382287658
31	0.6231155778894473	440.37784266035845	474.63978883984873	-125.77942933117481
32	0.6432160804020101	440.1874238679488	475.743248099931	-126.21505533375036
33	0.6633165829145728	439.98671988301686	476.9063090977768	-126.67421103760957
34	0.6834170854271356	439.77561614032993	478.1296357282948	-127.15715853660198
35	0.7035175879396985	439.55400975321567	479.4138242102201	-127.66413320723277
36	0.7236180904522613	439.32180934054577	480.75940408872435	-128.1953441044753
37	0.7437185929648241	439.07893485372074	482.16683923802515	-128.7509743575836
38	0.7638190954773869	438.8253174036541	483.6365288639964	-129.33118156590487
39	0.7839195979899498	438.5608990877566	485.16880850677836	-129.93609819469208
40	0.8040201005025126	438.28563281692044	486.7639510433873	-130.56583197091626
41	0.8241206030150754	437.99948214250395	488.4221676903259	-131.22046627907932
42	0.8442211055276382	437.70242108331536	490.1436090061929	-131.9000605570263
43	0.864321608040201	437.39443395259735	491.9283658942932	-132.604650691758
44	0.8844221105527639	437.0755151850115	493.7764706052479	-133.33424941524342
45	0.9045226130653267	436.74566916362227	495.687897739604	-134.08884670023235
46	0.9246231155778895	436.40491004688164	497.66256525044497	-134.86841015606788
47	0.9447236180904522	436.0532615956129	499.70033544599994	-135.6728854244987
48	0.964824120603015	435.69075699999564	501.80101599225446	-136.502196575492
49	0.9849246231155779	435.3174387065493	503.96436091555984	-137.35624650304558
50	1.0050251256281406	434.9333582451182	506.19007160524353	-138.23491732100064
51	1.0251256281407035	434.53857605585506	508.4777978162189	-139.1380707588541
52	1.0452261306532664	434.13316131620604	510.82713867159566	-140.06554855757122
53	1.065326633165829	433.7171917678945	513.2376436652889	-141.01717286539812
54	1.085427135678392	433.2907535439056	515.7088136646299	-141.99274663367413
55	1.105527638190955	432.85394099547045	518.2401019129762	-142.99205401264462
56	1.1256281407035176	432.4068565190504	520.8309150323207	-144.0148607472731
57	1.1457286432160805	431.94961038332144	523.4806140259025	-145.06091457305402
58	1.1658291457286432	431.4823205561583	526.1885152808164	-146.12994561182524
59	1.185929648241206	431.0051125316191	528.9538915706233	-147.22166676758036
60	1.206030150753769	430.5181191569292	531.7759730579595	-148.3357741222815
61	1.2261306532663316	430.0214804594658	534.6539482971476	-149.4719473316716
62	1.2462311557788945	429.5153434737422	537.5869652368057	-150.62985002108698
63	1.2663316582914572	428.99986206839196	540.5741322224576	-151.8091301812699
64	1.2864321608040201	428.4751967731534	543.6145189991429	-153.00942056418106
65	1.306532663316583	427.9415146058537	546.7071577140272	-154.23033907881194
66	1.3266331658291457	427.3989888993931	549.8510439190114	-155.47148918699767
67	1.3467336683417086	426.8477991287297	553.0451375733423	-156.73246029922922
68	1.3668341708542713	426.28813073786324	556.2883640462226	-158.0128281704659
69	1.3869346733668342	425.7201749668195	559.5796151194202	-159.31215529594814
70	1.407035175879397	425.14412867863496	562.9177499898785	-160.6299913070098
71	1.4271356783919598	424.5601941863403	566.3015962723274	-161.96587336689058
72	1.4472361809045227	423.9685790799458	569.7299510018914	-163.3193265665489
73	1.4673366834170853	423.36949605342454	573.2015816367013	-164.689864320474
74	1.4874371859296482	422.76316273169755	576.7152270605029	-166.07698876249864
75	1.5075376884422111	422.1498014976175	580.2695985852679	-167.48019114161167
76	1.5276381909547738	421.52963931895334	583.8633809538035	-168.89895221777036
77	1.5477386934673367	420.9029075753745	587.4952333423622	-170.33274265771308
78	1.5678391959798996	420.2698418854352	591.1637903632519	-171.7810234307717
79	1.5879396984924623	419.63068193355866	594.8676630674464	-173.24324620468417
80	1.6080402010050252	418.9856712970215	598.6054399471946	-174.71885374140695
81	1.6281407035175879	418.33505727293806	602.3756879386307	-176.2072802929276
82	1.6482412060301508	417.67909070524445	606.1769534243846	-177.7079519970772
83	1.6683417085427137	417.01802581168323	610.0077632361914	-179.220287273343
84	1.6884422110552764	416.3521200107874	613.8666256575017	-180.74369721868072
85	1.7085427135678393	415.6816337488648	617.7520314260913	-182.27758600332731
86	1.728643216080402	415.0068303269824	621.6624547366714	-183.8213512666132
87	1.7487437185929648	414.3279757279507	625.5963542434982	-185.37438451277504
88	1.7688442211055277	413.64533844330765	629.5521740629839	-186.93607150676806
89	1.7889447236180904	412.9591893003036	633.5283447763052	-188.50579267007853
90	1.8090452261306533	412.2698012888848	637.5232844320144	-190.08292347653654
91	1.829145728643216	411.57744938867853	641.5353995486491	-191.66683484812822
92	1.849246231155779	410.8824103959766	645.5630861173418	-193.25689355080834
93	1.8693467336683418	410.1849627507203	649.6047306044305	-194.85246259031297
94	1.8894472361809045	409.4853863634841	653.6587109540683	-196.45290160797163
95	1.9095477386934674	408.7839624424607	657.7233975908331	-198.05756727652027
96	1.92964824120603	408.0809733204444	661.7971544223384	-199.66581369591336
97	1.949748743718593	407.3767022818163	665.8783398418426	-201.27699278913664
98	1.9698492462311559	406.6714333895278	669.9653077308592	-202.89045469801954
99	1.9899497487437185	405.9654513120856	674.0564084617666	-204.50554817904776
100	2.0100502512562812	405.25904115053527	678.1499899004186	-206.12162099917566
101	2.030150753768844	404.55248826544647	682.2443984087538	-207.73802033163886
102	2.050251256281407	403.8460781038963	686.3379798474059	-209.3540931517668
103	2.07035175879397	403.140096026454	690.4290805783133	-210.969186632795
104	2.090452261306533	402.4348271341655	694.5160484673298	-212.5826485416779
105	2.1105527638190953	401.7305560955374	698.597233886834	-214.1938276349012
106	2.130653266331658	401.0275669735211	702.6709907183393	-215.80207405429428
107	2.150753768844221	400.3261430524976	706.7356773551043	-217.4067397228429
108	2.170854271356784	399.6265666652615	710.7896577047419	-219.0071787405016
109	2.190954773869347	398.92911902000515	714.8313021918307	-220.60274778000618
110	2.21105527638191	398.23408002730326	718.8589887605234	-222.19280648268634
111	2.2311557788944723	397.541728127097	722.871103877158	-223.776717854278
112	2.251256281407035	396.8523401156782	726.8660435328674	-225.35384866073602
113	2.271356783919598	396.16619097267414	730.8422142461885	-226.92356982404652
114	2.291457286432161	395.4835536880311	734.7980340656742	-228.4852568180395
115	2.311557788944724	394.80469908899937	738.7319335725011	-230.03829006420133
116	2.3316582914572863	394.12989566711695	742.6423568830811	-231.58205532748727
117	2.351758793969849	393.4594094051944	746.5277626516707	-233.11594411213383
118	2.371859296482412	392.79350360429856	750.386625072981	-234.63935405747156
119	2.391959798994975	392.13243871073735	754.2174348847878	-236.15168933373738
120	2.412060301507538	391.4764721430437	758.0187003705418	-237.652361037887
121	2.4321608040201004	390.82585811896024	761.7889483619779	-239.1407875894076
122	2.4522613065326633	390.1808474824231	765.5267252417259	-240.61639512613036
123	2.472361809045226	389.5416875305466	769.2305979459204	-242.07861790004284
124	2.492462311557789	388.9086218406073	772.8991549668103	-243.52689867310144
125	2.512562814070352	388.28189009702845	776.5310073553688	-244.9606891130442
126	2.5326633165829144	387.6617279183643	780.1247897239045	-246.37945018920288
127	2.5527638190954773	387.0483666842842	783.6791612486695	-247.78265256831588
128	2.5728643216080402	386.4420333625572	787.1928066724712	-249.16977701034054
129	2.592964824120603	385.842950336036	790.6644373072811	-250.54031476426564
130	2.613065326633166	385.2513352296414	794.092792036845	-251.89376796392392
131	2.6331658291457285	384.66740073734684	797.4766383192939	-253.22965002380477
132	2.6532663316582914	384.0913544491622	800.8147731897524	-254.54748603486638
133	2.6733668341708543	383.5233986781185	804.1060242629499	-255.84681316034863
134	2.693467336683417	382.9637302872521	807.34925073583	-257.12718103158534
135	2.71356783919598	382.4125405165887	810.543344390161	-258.38815214381685
136	2.7336683417085426	381.8700148101281	813.6872305951453	-259.62930225200256
137	2.7537688442211055	381.3363326428283	816.7798693100294	-260.8502207666335
138	2.7738693467336684	380.81166734758983	819.820256086715	-262.0505111495446
139	2.7939698492462313	380.29618594223956	822.8074230723668	-263.22979130972755
140	2.814070351758794	379.79004895651605	825.7404400120247	-264.3876939991429
141	2.8341708542713566	379.2934102590526	828.6184152512128	-265.52386720853303
142	2.8542713567839195	378.80641688436265	831.4404967385491	-266.63797456323414
143	2.8743718592964824	378.32920885982344	834.205873028356	-267.7296957189893
144	2.8944723618090453	377.86191903266035	836.91377428327	-268.7987267577605
145	2.9145728643216082	377.40467289693134	839.5634732768518	-269.8447805835414
146	2.9346733668341707	376.9575884205113	842.1542863961962	-270.8675873181699
147	2.9547738693467336	376.5207758720761	844.6855746445425	-271.86689469714037
148	2.9748743718592965	376.0943376480873	847.1567446438836	-272.84246846541646
149	2.9949748743718594	375.67836809977575	849.5672496375768	-273.7940927732433
150	3.0150753768844223	375.27295336012673	851.9165904929534	-274.72157057196046
151	3.035175879396985	374.87817117086365	854.2043167039288	-275.6247240098139
152	3.0552763819095476	374.49409070943244	856.4300273936125	-276.50339482776894
